<svg xmlns="http://www.w3.org/2000/svg" xmlns:xlink="http://www.w3.org/1999/xlink" viewBox="0 0 105.139 96.3"><defs><style>.a{fill:#fafafa;stroke:#fff;stroke-width:4px;}.b{filter:url(#a);}</style><filter id="a" x="0" y="0" width="105.139" height="96.3" filterUnits="userSpaceOnUse"><feOffset dy="1" input="SourceAlpha"/><feGaussianBlur stdDeviation="1" result="b"/><feFlood flood-opacity="0.161"/><feComposite operator="in" in2="b"/><feComposite in="SourceGraphic"/></filter></defs><g class="b" transform="matrix(1, 0, 0, 1, 0, 0)"><path class="a" d="M130.3,28.1,104.7,13.2a17.628,17.628,0,0,0-17.5,0l-25.8,15a17.692,17.692,0,0,0-8.7,15V73.3a17.426,17.426,0,0,0,8.7,15.1L87,103.3a17.628,17.628,0,0,0,17.5,0l25.8-15a17.692,17.692,0,0,0,8.7-15V43.2a17.426,17.426,0,0,0-8.7-15.1Z" transform="translate(-5.68 143) rotate(-90)"/></g></svg>