<svg xmlns="http://www.w3.org/2000/svg" viewBox="0 0 39.12 35.596"><defs><style>.a{fill:rgba(0,0,0,0.2);}</style></defs><path class="a" d="M19.6,48.6a3.6,3.6,0,0,0-3.1,2.148L4.767,70.77a3.7,3.7,0,0,0-.405,3.711q.834,1.563,3.314,1.563H31.516q2.479,0,3.29-1.563a3.752,3.752,0,0,0-.429-3.711L22.648,50.75A3.569,3.569,0,0,0,19.6,48.6Zm0-4.1q4.053,0,6.437,4.15L37.81,68.719q2.384,4.1.429,7.764Q36.285,80.1,31.516,80.1H7.676Q2.955,80.1.9,76.483q-2-3.613.429-7.764L13.111,48.65Q15.5,44.5,19.6,44.5ZM16.974,69.94q0-2.686,2.623-2.686,2.575,0,2.575,2.686A2.3,2.3,0,0,1,19.6,72.576,2.324,2.324,0,0,1,16.974,69.94Zm5.579-12.207a2.977,2.977,0,0,1-.238,1.123L19.6,65.838q-1.669-4.2-2.766-6.982a3,3,0,0,1,.644-3.3,2.859,2.859,0,0,1,2.122-.9,2.783,2.783,0,0,1,2.1.9A3.042,3.042,0,0,1,22.552,57.733Z" transform="translate(0 -44.5)"/></svg>