<?xml version="1.0" encoding="UTF-8" standalone="no"?>
<!-- Created with Keyshape -->
<svg xmlns="http://www.w3.org/2000/svg" xmlns:xlink="http://www.w3.org/1999/xlink" id="Layer_1" x="0px" y="0px" viewBox="0 0 1000 1000" style="white-space: preserve-spaces;">
    <g filter="none" transform="translate(498,507) translate(-445.503,-500.996)" style="animation: a0_t 3.6s linear infinite both;">
        <path d="M56.3,556L55.8,704.3C55.9,735.5,72.7,764.5,99.6,780.2L229.3,854.5C256,869.7,289,869.8,316.1,854.7L446.7,779.3C473.6,763.8,490.5,734.9,490.4,703.8L490.9,555.5C490.8,524.3,474,495.3,447.1,479.6L317.4,405.3C290.7,390.1,257.7,390,230.6,405.1L100,480.4C73.1,495.9,56.2,524.8,56.3,556ZM273.3,470L411.9,550.8L411.8,709.9L273.9,789.5L136,710L135.3,549.6L273.3,470Z" transform="translate(-55.8,-0.0372215)" style="animation: a1_t 3.6s linear infinite both;"/>
        <path d="M510.2,556.3L509.7,704.6C509.8,735.8,526.6,764.8,553.5,780.5L683.2,854.8C709.9,870,742.9,870.1,770,855L900.6,779.6C927.5,764.1,944.4,735.2,944.3,704.1L944.8,555.8C944.7,524.6,927.9,495.6,901,479.9L771.3,405.6C744.6,390.4,711.6,390.3,684.5,405.4L553.9,480.8C527.1,496.3,510.2,525.1,510.2,556.3ZM727.2,470.4L865.8,551.2L865.7,710.3L727.8,789.9L590,710.4L589.3,550L727.2,470.4Z" transform="translate(-55.8,-0.0372215)" style="animation: a2_t 3.6s linear infinite both;"/>
        <path d="M283,162.2L282.5,310.5C282.6,341.7,299.4,370.7,326.3,386.4L456,460.7C482.7,475.9,515.7,476,542.8,460.9L673.4,385.5C700.3,370,717.2,341.1,717.1,310L717.6,161.7C717.5,130.5,700.7,101.5,673.8,85.8L544.1,11.5C517.4,-3.7,484.4,-3.8,457.3,11.3L326.7,86.7C299.8,102.2,282.9,131,283,162.2ZM499.9,76.3L638.5,157L638.4,316.1L500.5,395.7L362.7,316.2L362,155.9L499.9,76.3Z" transform="translate(-55.8,-0.0372215)" style="animation: a3_t 3.6s linear infinite both;"/>
        <g transform="translate(-55.8,-0.0372215)">
            <g>
                <path d="M585.3,817.8C529.4,832.6,470.5,832.6,414.6,817.7C407,815.7,398,820.2,396.1,828.2C394.3,836.1,398.5,844.5,406.6,846.7C467.5,862.9,532.3,862.9,593.2,846.8C601,844.7,605.8,836.1,603.7,828.3C601.6,820.4,593.2,815.8,585.3,817.8L585.3,817.8Z"/>
            </g>
        </g>
        <g transform="translate(-55.8,-0.0372215)">
            <g>
                <path d="M181.1,413.6C196.2,357.5,225.7,306.7,266.6,265.6C272.3,259.9,272.3,250.1,266.6,244.4C260.9,238.7,251.1,238.6,245.4,244.4C201,289,168.5,344.8,152.2,405.6C150.2,413.2,154.7,422.2,162.7,424.1C170.5,425.9,178.9,421.7,181.1,413.6L181.1,413.6Z"/>
            </g>
        </g>
        <g transform="translate(-55.8,-0.0372215)">
            <g>
                <path d="M733.4,265.5C774.4,306.6,803.8,357.4,818.9,413.5C821,421.3,829.6,426.1,837.4,424C845.3,421.8,850,413.4,847.9,405.5C831.5,344.7,799.1,288.8,754.6,244.2C748.9,238.5,739.1,238.5,733.4,244.2C727.6,250.1,727.6,259.8,733.4,265.5L733.4,265.5Z"/>
            </g>
        </g>
    </g>
</svg>
