<svg xmlns="http://www.w3.org/2000/svg" viewBox="0 0 496.324 615.211"><defs><style>.a{fill:#fff;}.b{fill:#27c3ed;}.c,.d,.f{fill:none;}.c,.d{stroke:#27c3ed;}.c{stroke-width:24px;}.d{stroke-width:30px;}.e{stroke:none;}</style></defs><g transform="translate(-103 -109)"><path class="a" d="M231,0C485.9,8.3,462,103.422,462,231S358.578,454.6,231,454.6,0,358.578,0,231-23.9-8.3,231,0Z" transform="translate(121 226)"/><path class="b" d="M495.6,99.2a48.2,48.2,0,0,0-27.2-40.4C347,.1,257.4.6,250.1.7,242.8.6,153,.1,31.7,58.8A48.633,48.633,0,0,0,4.4,99.2C1.7,144.1-2.8,260.4,15,370.4A79.532,79.532,0,0,0,38.4,415c33.3,31.7,105,84.9,211.5,84.9,106.8,0,178.3-53.3,211.5-84.9a78.581,78.581,0,0,0,23.4-44.6C502.8,260.6,498.3,144.1,495.6,99.2ZM459,366.1a51.924,51.924,0,0,1-15.6,29.7c-30.4,29-95.8,77.6-193.3,77.6S87.2,424.8,56.8,395.8a53.125,53.125,0,0,1-15.6-29.7c-17.3-107.3-13-221.4-10.3-265.4A21.7,21.7,0,0,1,43.2,82.5c13.293-6.448,108.655-59.6,204.632-59.6,97.44,0,195.513,53.25,208.668,59.6a22.1,22.1,0,0,1,12.3,18.2C471.8,144.7,476.1,258.8,459,366.1Z" transform="translate(101.169 224.311)"/><path class="a" d="M459,366.1a51.924,51.924,0,0,1-15.6,29.7c-30.4,29-95.8,77.6-193.3,77.6S87.2,424.8,56.8,395.8a53.125,53.125,0,0,1-15.6-29.7c-17.3-107.3-13-221.4-10.3-265.4A21.7,21.7,0,0,1,43.2,82.5c13.293-6.448,108.655-59.6,204.632-59.6,97.44,0,195.513,53.25,208.668,59.6a22.1,22.1,0,0,1,12.3,18.2C471.8,144.7,476.1,258.8,459,366.1Z" transform="translate(101.63 224.311)"/><circle class="b" cx="41" cy="41" r="41" transform="translate(392 409)"/><circle class="a" cx="18" cy="18" r="18" transform="translate(415 432)"/><path class="b" d="M187.587,141.04a7.214,7.214,0,0,0-8.074-5.831c-49.341,8.186-85.114,41.492-86.572,42.95a7.076,7.076,0,0,0-.336,9.98,7.239,7.239,0,0,0,5.158,2.243,6.876,6.876,0,0,0,4.822-1.906c.336-.336,34.09-31.736,79.283-39.249A7.157,7.157,0,0,0,187.587,141.04Z" transform="translate(480.783 177.023) rotate(48)"/><path class="b" d="M221.125,143.085a9.712,9.712,0,0,0-10.869-7.85c-66.423,11.02-114.579,55.855-116.542,57.818a9.525,9.525,0,0,0-.453,13.435,9.745,9.745,0,0,0,6.944,3.019,9.256,9.256,0,0,0,6.491-2.566c.453-.453,45.892-42.722,106.729-52.836A9.635,9.635,0,0,0,221.125,143.085Z" transform="translate(416.637 818.825) rotate(-154)"/><g class="c" transform="translate(302 109)"><circle class="e" cx="49.5" cy="49.5" r="49.5"/><circle class="f" cx="49.5" cy="49.5" r="37.5"/></g><line class="d" y1="43" transform="translate(351.5 190.5)"/><path class="b" d="M350.03,304.3a48.634,48.634,0,0,1,27.3-40.4,657.965,657.965,0,0,1,64.085-26.993c-.457,8.748-1.013,17.633-1.682,26.6C412.958,274.773,394.2,285,388.83,287.6a21.7,21.7,0,0,0-12.3,18.2c-1.259,20.515-2.866,56.267-2.469,99.465a284.837,284.837,0,0,1-26.332,15.224C346.756,369.833,348.634,327.518,350.03,304.3Z" transform="translate(130.539 247.21)"/><path class="b" d="M438.307,304.3a48.638,48.638,0,0,0-27.139-40.4,651.964,651.964,0,0,0-63.707-26.993c.454,8.748,1.007,17.633,1.672,26.6C375.75,274.773,394.4,285,399.736,287.6a21.7,21.7,0,0,1,12.227,18.2c1.251,20.515,2.849,56.267,2.454,99.465a282.745,282.745,0,0,0,26.176,15.224C441.561,369.833,439.695,327.518,438.307,304.3Z" transform="translate(-216.861 247.21)"/><ellipse class="b" cx="41.017" cy="41" rx="41.017" ry="41" transform="translate(228.966 409)"/><ellipse class="a" cx="18.007" cy="18" rx="18.007" ry="18" transform="translate(251.975 432)"/><path class="b" d="M96.893,49.393a7.212,7.212,0,0,1-8.074,5.831C39.467,47.025,3.681,13.7,2.222,12.247a7.078,7.078,0,0,1-.339-9.983A7.237,7.237,0,0,1,7.043.021a6.88,6.88,0,0,1,4.823,1.908c.337.337,34.1,31.75,79.306,39.274A7.162,7.162,0,0,1,96.893,49.393Z" transform="translate(303.004 371.845) rotate(132)"/></g></svg>