<svg id="Calque_1" data-name="Calque 1" xmlns="http://www.w3.org/2000/svg" viewBox="0 0 189 189"><defs><style>.cls-1{fill:#1da1f2;}.cls-2{fill:#f6f7fc;}</style></defs><title>Plan de travail 1</title><circle class="cls-1" cx="94.5" cy="94.5" r="94.5"/><g id="layer1"><path id="path3611" class="cls-2" d="M76,150.07C123.85,150.07,150,110.39,150,76c0-1.13,0-2.25-.07-3.37a52.82,52.82,0,0,0,13-13.48A52,52,0,0,1,148,63.24a26.1,26.1,0,0,0,11.45-14.4,52.26,52.26,0,0,1-16.53,6.32,26,26,0,0,0-45,17.8,25.76,25.76,0,0,0,.68,5.94A73.94,73.94,0,0,1,44.88,51.7a26,26,0,0,0,8.06,34.76A25.82,25.82,0,0,1,41.15,83.2c0,.11,0,.22,0,.33A26.06,26.06,0,0,0,62,109.06a26.34,26.34,0,0,1-6.86.91,25.52,25.52,0,0,1-4.9-.47A26.07,26.07,0,0,0,74.6,127.59a52.28,52.28,0,0,1-32.34,11.14,53,53,0,0,1-6.21-.36A73.65,73.65,0,0,0,76,150.07"/></g></svg>