<svg id="Calque_1" data-name="Calque 1" xmlns="http://www.w3.org/2000/svg" viewBox="0 0 189 189"><defs><style>.cls-1{fill:#2dc100;}.cls-2{fill:#f6f7fc;}</style></defs><title>Artboard 1</title><circle class="cls-1" cx="94.5" cy="94.5" r="94.5"/><path class="cls-2" d="M117.91,76.75c-11.16.58-20.87,3.94-28.75,11.61s-11.59,17.19-10.6,28.93c-4.36-.55-8.34-1.15-12.34-1.48a7.68,7.68,0,0,0-4.19.71c-3.87,2.18-7.59,4.66-12,7.42.81-3.66,1.33-6.9,2.26-10,.68-2.26.36-3.52-1.72-5-13.4-9.45-19-23.66-14.78-38.19C39.73,57.31,49.3,49.11,62.4,44.88c17.81-5.82,37.83.11,48.66,14.25A33.43,33.43,0,0,1,117.91,76.75ZM66.54,72.22a5.15,5.15,0,0,0-4.93-5.14,5,5,0,0,0-5.2,4.8v0A4.92,4.92,0,0,0,61.13,77h.2A5.08,5.08,0,0,0,66.54,72.22Zm26.8-5.14a5.15,5.15,0,0,0-5,5.08,5,5,0,0,0,5.12,4.92h0a5,5,0,0,0,.29-10h-.42Z"/><path class="cls-2" d="M143,146.34c-3.53-1.58-6.77-3.94-10.22-4.3s-7.06,1.63-10.65,2a35.67,35.67,0,0,1-28.87-9.42c-15.4-14.22-13.2-36,4.61-47.72,15.83-10.37,39.05-6.9,50.21,7.48,9.74,12.56,8.6,29.22-3.3,39.77-3.44,3-4.68,5.57-2.47,9.59A10.85,10.85,0,0,1,143,146.34Zm-40.23-39a4.16,4.16,0,1,0,.4-8.31h-.4a4.16,4.16,0,1,0-.41,8.31A2.81,2.81,0,0,0,102.75,107.38Zm25.94-8.31a4.18,4.18,0,0,0-4.13,3.94,4.1,4.1,0,0,0,3.88,4.3h.19a4,4,0,0,0,4.13-3.94,4.13,4.13,0,0,0-4-4.29Z"/></svg>