<svg id="Calque_1" data-name="Calque 1" xmlns="http://www.w3.org/2000/svg" viewBox="0 0 189 189"><defs><style>.cls-1{fill:#777e8b;}.cls-2{fill:#f6f7fc;}</style></defs><title>Artboard 1</title><circle class="cls-1" cx="94.5" cy="94.5" r="94.5"/><path class="cls-2" d="M51.91,114.65c-5.67,0-12.69-1.88-14.89-5.09a3.45,3.45,0,0,1-.6-2,3.92,3.92,0,0,1,3.91-3.86,3.83,3.83,0,0,1,2.22.64,17.21,17.21,0,0,0,9.77,3c4.56,0,6.77-2.11,6.77-4.33,0-6.9-22.46-2.16-22.46-16.84,0-6.45,5.63-11.87,14.81-11.87,4.45,0,11.23,1.47,13.4,4.33a3.16,3.16,0,0,1,.7,2,4.06,4.06,0,0,1-4.14,3.74,4.15,4.15,0,0,1-2.12-.58,17.6,17.6,0,0,0-8.6-2.22c-3.56,0-5.55,1.57-5.55,3.91,0,6.2,22.42,2,22.42,16.61C67.55,109.26,62.43,114.65,51.91,114.65Z"/><path class="cls-2" d="M115.4,110.14a4.18,4.18,0,0,1-8.36,0V86.63L96.52,112.77a2.46,2.46,0,0,1-2.34,1.52,2.43,2.43,0,0,1-2.27-1.52L81.43,86.63v23.56a4.15,4.15,0,0,1-8.29,0V79.62a4.68,4.68,0,0,1,4.66-4.68c3.81-.41,7.08.4,8.49,3.8L94.24,98.5l8-19.76a6.08,6.08,0,0,1,5.68-3.8c3.73-.59,7.53.77,7.53,4.68Z"/><path class="cls-2" d="M137,114.65c-5.67,0-12.68-1.88-14.89-5.09a3.41,3.41,0,0,1-.65-2,4,4,0,0,1,3.93-3.86,3.83,3.83,0,0,1,2.22.64,17.07,17.07,0,0,0,9.75,3c4.57,0,6.77-2.11,6.77-4.33,0-6.9-22.45-2.16-22.45-16.84,0-6.45,5.67-11.87,14.91-11.87,4.46,0,11.24,1.47,13.4,4.33a3.29,3.29,0,0,1,.71,2,4.07,4.07,0,0,1-4.23,3.74,4.14,4.14,0,0,1-2.11-.58,17.57,17.57,0,0,0-8.59-2.22c-3.56,0-5.55,1.57-5.55,3.91,0,6.2,22.39,2,22.39,16.61C152.59,109.26,147.51,114.65,137,114.65Z"/></svg>