<svg id="Calque_1" data-name="Calque 1" xmlns="http://www.w3.org/2000/svg" viewBox="0 0 189 189"><defs><style>.cls-1{fill:#777e8b;}.cls-2{fill:#f6f7fc;}</style></defs><title>Artboard 1</title><circle class="cls-1" cx="94.5" cy="94.5" r="94.5"/><path class="cls-2" d="M137.7,56.35a6.82,6.82,0,0,1,6.8,6.8v46.3a6.82,6.82,0,0,1-6.8,6.8H51.4l-2.7,2.2-4.2,3.4V56.35h93.2m0-10H34.5v96.3l20.4-16.3h82.7a16.77,16.77,0,0,0,16.8-16.74V63.15A16.62,16.62,0,0,0,138,46.35Z"/><path class="cls-2" d="M144.5,67.05v42.6a6.82,6.82,0,0,1-6.8,6.8H51.4l-2.7,2.2-4.2,3.2V67.05l43.8,34.6,6.2,4.9,6.2-4.9,43.8-34.6m-110-20.7v96.3l20.4-16.3h82.8a16.77,16.77,0,0,0,16.8-16.74V63.15a16.9,16.9,0,0,0-5.1-12.1l-.4-.4L94.5,93.85Z"/></svg>