<svg id="Calque_1" data-name="Calque 1" xmlns="http://www.w3.org/2000/svg" viewBox="0 0 189 189"><defs><style>.cls-1{fill:#00c300;}.cls-2{fill:#f6f7fc;}</style></defs><title>Artboard 1</title><circle class="cls-1" cx="94.5" cy="94.5" r="94.5"/><path class="cls-2" d="M148.75,90.84c0-24.27-24.33-44-54.28-44s-54.22,19.75-54.22,44c0,21.76,19.3,40,45.37,43.42,1.75.38,4.17,1.18,4.78,2.68a10.25,10.25,0,0,1,.17,4.91s-.63,3.83-.77,4.64c-.23,1.37-1.09,5.36,4.7,2.92s31.25-18.36,42.62-31.48h0C145,109.31,148.75,100.56,148.75,90.84ZM73.26,105.28H62.49a2.85,2.85,0,0,1-2.85-2.84V80.92a2.85,2.85,0,0,1,5.69,0V99.63h7.93a2.85,2.85,0,0,1,.31,5.7h-.31Zm11.15-2.84a2.85,2.85,0,0,1-5.69,0V80.92a2.85,2.85,0,0,1,5.69,0Zm26,0a2.84,2.84,0,0,1-1.9,2.7,2.89,2.89,0,0,1-.88.14,2.86,2.86,0,0,1-2.27-1.13l-11.12-15v13.33a2.85,2.85,0,0,1-5.69,0V80.92a2.85,2.85,0,0,1,5.09-1.75l11.08,15V80.92a2.85,2.85,0,0,1,5.69,0Zm17.45-13.65a2.85,2.85,0,0,1,0,5.69h-7.94v5.08h7.94a2.85,2.85,0,0,1,0,5.7H117a2.85,2.85,0,0,1-2.85-2.84V91.67h0V80.92A2.84,2.84,0,0,1,117,78h10.82a2.85,2.85,0,0,1,0,5.69h-7.94v5.06Z"/></svg>