<svg id="Calque_1" data-name="Calque 1" xmlns="http://www.w3.org/2000/svg" xmlns:xlink="http://www.w3.org/1999/xlink" viewBox="0 0 189 189"><defs><style>.cls-1{fill:url(#linear-gradient);}.cls-2{fill:#fff;}.cls-3{fill:#d3e6f2;}.cls-4{fill:#b6d0e5;}</style><linearGradient id="linear-gradient" y1="94.5" x2="189" y2="94.5" gradientUnits="userSpaceOnUse"><stop offset="0" stop-color="#42bde9"/><stop offset="1" stop-color="#23a8dd"/></linearGradient></defs><title>Artboard 1</title><circle class="cls-1" cx="94.5" cy="94.5" r="94.5"/><path class="cls-2" d="M144.23,51.36l-17,85.69s-2.39,5.95-8.91,3.1L79.08,110.09l-14.26-6.88-24-8.1s-3.67-1.32-4-4.17S41,86.56,41,86.56l95.46-37.45S144.23,45.66,144.23,51.36Z"/><path class="cls-3" d="M76.09,136.12s-1.15-.11-2.57-4.63-8.67-28.28-8.67-28.28l57.66-36.62s3.32-2,3.21,0c0,0,.61.35-1.17,2s-45.29,40.76-45.29,40.76"/><path class="cls-4" d="M94.17,121.61,78.65,135.77a2.72,2.72,0,0,1-2.53.35l3-26.28"/></svg>