<svg id="Calque_1" data-name="Calque 1" xmlns="http://www.w3.org/2000/svg" xmlns:xlink="http://www.w3.org/1999/xlink" viewBox="0 0 189 189"><defs><style>.cls-1{fill:url(#linear-gradient);}.cls-2{fill:#f6f7fc;}</style><linearGradient id="linear-gradient" x1="94.5" x2="94.5" y2="189" gradientUnits="userSpaceOnUse"><stop offset="0" stop-color="#896cfd"/><stop offset="1" stop-color="#5443a7"/></linearGradient></defs><title>Artboard 1</title><circle class="cls-1" cx="94.5" cy="94.5" r="94.5"/><path class="cls-2" d="M136.19,58.44c-8.45-9.77-23.27-13-37.12-13H89.93c-13.14,0-27.34,3.28-35.74,12.19C46.44,65.86,44,79.25,44,91.4h0c0,11.64,1.91,25.39,9.14,33.52,3.88,4.38,9.14,7.34,15,9.29v11.42a4,4,0,0,0,6.78,2.77l10.93-11.13c1.4.07,2.8.12,4.15.12H99c11.44,0,26-3,34.07-10,9.8-8.45,11.94-22.17,11.94-36h0C145.05,80,143.16,66.51,136.19,58.44Zm.55,33c0,11.58-1.79,23-10,30.09-6.74,5.82-18.91,8.31-28.47,8.31H91.05l-2.6-.05L72.44,146a.57.57,0,0,1-.68.14.58.58,0,0,1-.39-.57V126.86l-2-.83a26.75,26.75,0,0,1-9.53-6.65c-6-6.76-7.63-18.23-7.63-28h0c0-10.15,2.06-21.35,8.56-28.25C67.84,55.72,79.68,53,90.68,53h7.64c11.57,0,24,2.71,31,10.88C135.15,70.6,136.74,81.84,136.74,91.4Z"/><path class="cls-2" d="M105.23,88a1,1,0,0,1-1-1v0A6.18,6.18,0,0,0,98,80.79a1,1,0,0,1,0-2.08A8.31,8.31,0,0,1,106.27,87a1,1,0,0,1-1,1.06Z"/><path class="cls-2" d="M111.77,91.13a1.24,1.24,0,0,1-1.24-1.25A15,15,0,0,0,95.63,75a1.25,1.25,0,1,1,0-2.49A17.45,17.45,0,0,1,113,89.9,1.25,1.25,0,0,1,111.77,91.13Z"/><path class="cls-2" d="M118.22,95h-.16a1.25,1.25,0,0,1-1.07-1.4,21.76,21.76,0,0,0,.18-2.91A22.09,22.09,0,0,0,95.1,68.55a20.51,20.51,0,0,0-2.6.16,1.26,1.26,0,0,1-.29-2.5A25.46,25.46,0,0,1,95.1,66a24.61,24.61,0,0,1,24.57,24.59,25.18,25.18,0,0,1-.21,3.24A1.24,1.24,0,0,1,118.22,95Z"/><path class="cls-2" d="M71.37,72.45a8.74,8.74,0,0,0-2.3,8.7,50,50,0,0,0,15.11,23.27c9.63,8.43,16.83,11.84,21.48,13.3a8.72,8.72,0,0,0,8.66-2.08l2.08-2.08a4.27,4.27,0,0,0,.08-6.06l-.24-.23-7.58-6.65a4.28,4.28,0,0,0-5.76.1l-2.27,2.21a4.59,4.59,0,0,1-5,.9c-3.22-1.39-8.43-4.79-12.7-12.92a4.64,4.64,0,0,1,1-5.49l2.21-2.08a4.28,4.28,0,0,0,.31-5.91l-6.26-7.24a4.26,4.26,0,0,0-6-.46l-.21.19Z"/></svg>