<?xml version="1.0" encoding="utf-8"?>
<!-- Generator: Adobe Illustrator 22.1.0, SVG Export Plug-In . SVG Version: 6.00 Build 0)  -->
<svg version="1.1" id="Ebene_1" xmlns="http://www.w3.org/2000/svg" xmlns:xlink="http://www.w3.org/1999/xlink" x="0px" y="0px"
	 viewBox="0 0 1000 1000" style="enable-background:new 0 0 1000 1000;" xml:space="preserve">
<style type="text/css">
	.st0{fill:#FFFFFF;}
</style>
<path class="st0" d="M917.1,201.6H520.3l-65-202.4h-388C30.8-0.8,0.9,29.1,0.9,65.7v677c0,36.5,29.9,66.4,66.4,66.4h403.3
	l62.5,191.7h384c45.2,0,82-36.4,82-81.1v-637C999.1,238,962.3,201.6,917.1,201.6z M708.1,628.3C685.9,651,669,664.5,669,664.5
	l15,46.7L608.4,476h197.4c-12.8,45-41,87.5-68.5,120.5c-48.8-57.7-49-76.5-49-76.5h-50.7C637.6,520,639.7,548.1,708.1,628.3z
	 M281,556.5c-84.4,0-152.3-67.9-152.3-152.4S196.5,251.8,281,251.8c38.8,0,73.4,14.6,100.4,38.1l-44.3,44.3
	c-15.3-12.5-34.6-20.1-56.1-20.1c-49.8,0-90,40.2-90,90s40.2,90,90,90c42.2,0,74.1-21.4,81.7-58.8H281v-58.8h67.8h56.8h17.3
	c2.1,9,3.5,18.7,3.5,27.7C426.4,501.1,357.2,556.5,281,556.5z M961.9,919.7c0,24.2-20.1,43.8-44.8,43.8H576.3l138.9-154.5h0.2
	l-30.8-95.9c0,0,23.5-20.2,53-51.5c29.5,32,67.6,70.5,116.9,116.4l32-32c-52.8-47.9-91.5-85.9-119.9-116.4
	c38.1-45.1,76.8-101.8,85-153.8H936V437H748v-63h-61v63h-91.1l-63.6-198.2h384.9c24.7,0,44.8,19.7,44.8,43.8V919.7z"/>
</svg>
