<svg xmlns="http://www.w3.org/2000/svg" xmlns:xlink="http://www.w3.org/1999/xlink" viewBox="0 0 835.5 172.85"><defs><style>.a{fill:url(#a);}.b{fill:none;}.c{fill:#b6b6b6;}</style><linearGradient id="a" x1="-0.68" y1="1.401" x2="1.386" y2="-0.177" gradientUnits="objectBoundingBox"><stop offset="0" stop-color="#fff"/><stop offset="1" stop-color="#fff"/></linearGradient></defs><g transform="translate(-6.7 -10.875)"><path class="a" d="M84.4,106.2,58.7,91.3a17.628,17.628,0,0,0-17.5,0l-25.8,15a17.692,17.692,0,0,0-8.7,15v30.1a17.426,17.426,0,0,0,8.7,15.1L41,181.4a17.628,17.628,0,0,0,17.5,0l25.8-15a17.692,17.692,0,0,0,8.7-15V121.3a17.127,17.127,0,0,0-8.6-15.1Zm-6.8,46L49.8,168.1,22.3,152.2V120.4l27.5-15.9,27.8,15.9Z"/><path class="a" d="M176.9,106.1,151.3,91.2a17.628,17.628,0,0,0-17.5,0l-25.8,15a17.692,17.692,0,0,0-8.7,15v30.1a17.426,17.426,0,0,0,8.7,15.1l25.6,14.9a17.628,17.628,0,0,0,17.5,0l25.8-15a17.692,17.692,0,0,0,8.7-15V121.2A17.426,17.426,0,0,0,176.9,106.1Zm-6.8,46.1-27.8,15.9-27.5-15.9V120.4l27.5-15.9,27.8,15.9Z"/><path class="a" d="M130.3,28.1,104.7,13.2a17.628,17.628,0,0,0-17.5,0l-25.8,15a17.692,17.692,0,0,0-8.7,15V73.3a17.426,17.426,0,0,0,8.7,15.1L87,103.3a17.628,17.628,0,0,0,17.5,0l25.8-15a17.692,17.692,0,0,0,8.7-15V43.2a17.426,17.426,0,0,0-8.7-15.1Zm-6.8,46.1L95.7,90.1,68.2,74.2V42.4L95.7,26.5l27.8,15.9Z"/><path class="a" d="M28.3,96.4a2.2,2.2,0,0,1-.8-.1c-1.6-.4-2.3-2-2.1-3.7,1.2-9.7,12.7-28.8,18.8-33.7a3.084,3.084,0,0,1,4.2.2,2.992,2.992,0,0,1-.2,4.2c-9.7,9.9-15.5,23.9-17.1,30.8a3.263,3.263,0,0,1-2.8,2.3Z"/><path class="a" d="M163.3,96.4a2.2,2.2,0,0,0,.8-.1c1.6-.4,2.3-2,2.1-3.7-1.2-9.7-12.7-28.8-18.8-33.7a3.084,3.084,0,0,0-4.2.2,2.992,2.992,0,0,0,.2,4.2c9.7,9.9,15.5,23.9,17.1,30.8a3.263,3.263,0,0,0,2.8,2.3Z"/><path class="a" d="M117.1,174.9c.1.2.2.5.3.7a3.213,3.213,0,0,1-2.1,3.7c-9,3.8-31.4,3-38.8,0a3.19,3.19,0,0,1-2-3.9,2.983,2.983,0,0,1,3.8-1.9c13.5,3.7,28.6,1.9,35.4-.1a3.619,3.619,0,0,1,3.4,1.5Z"/><rect class="b" width="248.7" height="122" transform="translate(205.8 20.3)"/><path class="a" d="M206.5,133a6.03,6.03,0,0,1-2.6-5.3c0-4.1,2.3-6.4,6.9-6.7l4.9-.3c5-.2,8.7-1.7,11.2-4.5,2.4-2.8,3.7-7.3,3.7-13.3V28.6a8.47,8.47,0,0,1,2.3-6,8.259,8.259,0,0,1,14.3,6v74.2c0,10-2.4,17.6-7.1,22.7-4.7,5.2-11.8,8-21.3,8.5l-4.9.3C210.6,134.7,208.2,134.2,206.5,133Z"/><path class="a" d="M287.5,131.6c-7.3-2.2-13.1-5.3-17.5-9.3a8.2,8.2,0,0,1-3-6.5,7.6,7.6,0,0,1,1.6-4.9,4.841,4.841,0,0,1,3.8-2,10.307,10.307,0,0,1,5.4,2.1,53.225,53.225,0,0,0,32.4,10.5c8.5,0,15.1-1.6,19.6-4.8,4.6-3.2,6.9-7.8,6.9-13.7a11.164,11.164,0,0,0-6.4-10.5c-4.3-2.3-11.1-4.6-20.4-6.7a125.65,125.65,0,0,1-22-6.5,33.218,33.218,0,0,1-13.5-10c-3.2-4.2-4.9-9.5-4.9-16A29.527,29.527,0,0,1,274.8,36a34.637,34.637,0,0,1,14.9-11.8A54.147,54.147,0,0,1,311.6,20a66.373,66.373,0,0,1,20.9,3.2,44.482,44.482,0,0,1,16.3,9.4,8.382,8.382,0,0,1,3.2,6.5,7.6,7.6,0,0,1-1.7,4.8,4.853,4.853,0,0,1-3.9,2.1c-1.4,0-3.1-.7-5.3-2.1a60.019,60.019,0,0,0-13.8-8.1,44.741,44.741,0,0,0-15.6-2.5c-8.2,0-14.6,1.7-19.2,5a16.379,16.379,0,0,0-6.9,14c0,5.1,2,9,6.1,11.6,4,2.6,10.5,5,19.5,7.1a154.028,154.028,0,0,1,22.7,6.6A35.249,35.249,0,0,1,347.8,87c3.5,4,5.2,9.1,5.2,15.4a28.607,28.607,0,0,1-5.3,17,35.127,35.127,0,0,1-15,11.5,57.23,57.23,0,0,1-22.3,4.1,82.907,82.907,0,0,1-22.9-3.4Z"/><path class="a" d="M375.6,131.5a8,8,0,0,1-2.2-5.8V29.1a7.613,7.613,0,0,1,2.2-5.8,8.327,8.327,0,0,1,6-2.2h58.7a8.468,8.468,0,0,1,5.7,1.8,6.325,6.325,0,0,1,2,4.9,6.18,6.18,0,0,1-2,4.9,8.615,8.615,0,0,1-5.7,1.7H389.5V69.8h47.6a8.468,8.468,0,0,1,5.7,1.8,6.325,6.325,0,0,1,2,4.9,6.18,6.18,0,0,1-2,4.9,8.121,8.121,0,0,1-5.7,1.8H389.5v37.2h50.8c5.1,0,7.7,2.2,7.7,6.5a6.18,6.18,0,0,1-2,4.9,8.121,8.121,0,0,1-5.7,1.8H381.6A7.734,7.734,0,0,1,375.6,131.5Z"/><rect class="b" width="387.6" height="124.4" transform="translate(454.6 19.1)"/><path class="c" d="M488.7,126.8a44.923,44.923,0,0,1-17.7-20c-4.1-8.7-6.1-18.9-6.1-30.7s2-22,6.1-30.6a45.744,45.744,0,0,1,17.7-19.9c7.7-4.6,16.8-6.9,27.2-6.9a58.424,58.424,0,0,1,20.4,3.6,45.334,45.334,0,0,1,16.4,10.3,6.107,6.107,0,0,1,2.2,4.6,4.359,4.359,0,0,1-1,3,2.925,2.925,0,0,1-2.3,1.3,6.148,6.148,0,0,1-3.7-1.6,59.528,59.528,0,0,0-15.6-9.7,45.84,45.84,0,0,0-16.4-2.7C503,27.5,493,31.8,486,40.3c-7.1,8.5-10.6,20.5-10.6,35.9,0,15.5,3.5,27.6,10.6,36.1s17.1,12.8,29.9,12.8a45.082,45.082,0,0,0,16.4-2.7c4.7-1.8,9.9-5.1,15.6-9.7a7.252,7.252,0,0,1,3.7-1.6,2.79,2.79,0,0,1,2.3,1.3,4.719,4.719,0,0,1,1,3,6.107,6.107,0,0,1-2.2,4.6,44.5,44.5,0,0,1-16.4,10.3,57.617,57.617,0,0,1-20.4,3.6C505.4,133.7,496.4,131.4,488.7,126.8Z"/><path class="c" d="M594.7,126.8a44.32,44.32,0,0,1-17.4-20c-4-8.7-6.1-18.9-6.1-30.6,0-11.8,2-22.1,6.1-30.7a45.25,45.25,0,0,1,17.3-20q11.25-6.9,26.7-6.9c10.3,0,19.3,2.3,26.8,6.9a44.582,44.582,0,0,1,17.4,19.9c4,8.6,6.1,18.8,6.1,30.6s-2,22.1-6.1,30.7a44.843,44.843,0,0,1-17.4,20c-7.6,4.6-16.5,6.9-26.8,6.9C611.2,133.7,602.3,131.4,594.7,126.8Zm56.2-14.6c7-8.5,10.5-20.5,10.5-36.1q0-23.25-10.5-36c-7-8.5-16.8-12.7-29.6-12.7-12.7,0-22.5,4.3-29.4,12.8-7,8.5-10.5,20.5-10.5,35.9s3.5,27.4,10.5,36,16.8,12.8,29.4,12.8c12.7.1,22.6-4.2,29.6-12.7Z"/><path class="c" d="M697.8,131.8a5.308,5.308,0,0,1-1.4-3.7V24.2a5.308,5.308,0,0,1,1.4-3.7,4.536,4.536,0,0,1,3.6-1.4,4.9,4.9,0,0,1,3.6,1.4,5.308,5.308,0,0,1,1.4,3.7V128.1a5.308,5.308,0,0,1-1.4,3.7,4.536,4.536,0,0,1-3.6,1.4A4.232,4.232,0,0,1,697.8,131.8Z"/><path class="c" d="M822.4,20.5a5.586,5.586,0,0,1,1.2,3.8V128.2a5.237,5.237,0,0,1-1.3,3.7,4.325,4.325,0,0,1-3.5,1.4,5.5,5.5,0,0,1-4.3-2.4L744.6,36.6v91.6a5.237,5.237,0,0,1-1.3,3.7,4.95,4.95,0,0,1-6.9,0,6.132,6.132,0,0,1-1.1-3.8V24.2a5.308,5.308,0,0,1,1.4-3.7,4.839,4.839,0,0,1,3.8-1.4,4.933,4.933,0,0,1,4.2,2.4l69.8,94.2V24.2a5.237,5.237,0,0,1,1.3-3.7,4.25,4.25,0,0,1,3.4-1.4A4.158,4.158,0,0,1,822.4,20.5Z"/><rect class="b" width="624.6" height="23.3" transform="translate(205.2 157.8)"/><path class="c" d="M205.2,178.5a.6.6,0,0,1-.3-.6c0-.5.3-.7.8-.8l.8-.1a3.352,3.352,0,0,0,2.4-1,4.562,4.562,0,0,0,.8-2.9V158.6a.908.908,0,0,1,.3-.7.864.864,0,0,1,.6-.3,1.445,1.445,0,0,1,.7.2.844.844,0,0,1,.2.7V173a5.8,5.8,0,0,1-1.2,4,4.591,4.591,0,0,1-3.6,1.4l-.9.1C205.6,178.7,205.4,178.6,205.2,178.5Z"/><path class="c" d="M234.7,177.9a.55.55,0,0,1-.3.5,1.421,1.421,0,0,1-.6.2.9.9,0,0,1-.5-.1c-.1-.1-.3-.2-.3-.4l-2.2-5.1H219.4l-2.3,5.1c-.2.4-.4.6-.8.6a1.422,1.422,0,0,1-.6-.2c-.2-.1-.2-.3-.2-.6a.367.367,0,0,1,.1-.3l8.5-19.2a1,1,0,0,1,1-.6,1.422,1.422,0,0,1,.6.2,1,1,0,0,1,.4.5l8.5,19.2C234.7,177.7,234.7,177.8,234.7,177.9Zm-14.6-6.4h10l-5-11.3Z"/><path class="c" d="M252.8,157.7a1.422,1.422,0,0,1,.6.2.55.55,0,0,1,.3.5.756.756,0,0,1-.1.4L245.1,178a1.073,1.073,0,0,1-2,0l-8.5-19.2a.367.367,0,0,1-.1-.3.864.864,0,0,1,.3-.6,1.421,1.421,0,0,1,.6-.2.891.891,0,0,1,.8.5l7.9,17.9,7.9-17.9a1.02,1.02,0,0,1,.8-.5Z"/><path class="c" d="M272.8,177.9a.55.55,0,0,1-.3.5,1.421,1.421,0,0,1-.6.2.9.9,0,0,1-.5-.1c-.1-.1-.3-.2-.3-.4l-2.2-5.1H257.5l-2.3,5.1c-.2.4-.4.6-.8.6a1.422,1.422,0,0,1-.6-.2c-.2-.1-.2-.3-.2-.6a.367.367,0,0,1,.1-.3l8.5-19.2a1,1,0,0,1,1-.6,1.421,1.421,0,0,1,.6.2,1,1,0,0,1,.4.5l8.5,19.2A.349.349,0,0,1,272.8,177.9Zm-14.6-6.4h10l-5-11.3Z"/><path class="c" d="M278.7,178.1a7.807,7.807,0,0,1-3.1-1.9.91.91,0,0,1-.4-.8,1.421,1.421,0,0,1,.2-.6.4.4,0,0,1,.4-.2,1.329,1.329,0,0,1,.7.3,9.851,9.851,0,0,0,6.4,2.3,6.894,6.894,0,0,0,4.1-1.1,3.365,3.365,0,0,0,1.4-3,2.14,2.14,0,0,0-.7-1.8,5.444,5.444,0,0,0-1.8-1.1,22.388,22.388,0,0,0-2.9-.8,33.245,33.245,0,0,1-3.9-1.1,6.193,6.193,0,0,1-2.5-1.7,4.359,4.359,0,0,1-1-3,5.384,5.384,0,0,1,.9-3.1,6.066,6.066,0,0,1,2.6-2.1,9.2,9.2,0,0,1,3.8-.7,9.857,9.857,0,0,1,3.8.7,7.714,7.714,0,0,1,3,1.9,1.033,1.033,0,0,1,.4.8,1.421,1.421,0,0,1-.2.6.4.4,0,0,1-.4.2,1.329,1.329,0,0,1-.7-.3,9.572,9.572,0,0,0-2.9-1.8,8.532,8.532,0,0,0-3-.5,7.115,7.115,0,0,0-4.1,1.1,3.62,3.62,0,0,0-1.5,3.1,2.883,2.883,0,0,0,.6,1.9,4.344,4.344,0,0,0,1.7,1.2,12.543,12.543,0,0,0,2.7.8l.8.2c1.6.4,2.8.8,3.7,1.1a5.131,5.131,0,0,1,2.3,1.5,4.139,4.139,0,0,1,1,2.8,5.291,5.291,0,0,1-.9,3,5.877,5.877,0,0,1-2.6,2,9.2,9.2,0,0,1-3.8.7A11.334,11.334,0,0,1,278.7,178.1Z"/><path class="c" d="M298.2,177.5a7.771,7.771,0,0,1-3.2-3.7,13.978,13.978,0,0,1-1.1-5.6,13.631,13.631,0,0,1,1.1-5.6,7.527,7.527,0,0,1,3.2-3.6,10.037,10.037,0,0,1,5-1.3,9.04,9.04,0,0,1,3.7.7,7.714,7.714,0,0,1,3,1.9,1.033,1.033,0,0,1,.4.8,1.421,1.421,0,0,1-.2.6.4.4,0,0,1-.4.2,1.329,1.329,0,0,1-.7-.3,9.573,9.573,0,0,0-2.9-1.8,9.426,9.426,0,0,0-3-.5,6.873,6.873,0,0,0-5.5,2.3c-1.3,1.5-1.9,3.8-1.9,6.6s.6,5.1,1.9,6.6a6.873,6.873,0,0,0,5.5,2.3,8.531,8.531,0,0,0,3-.5,9.574,9.574,0,0,0,2.9-1.8,1.329,1.329,0,0,1,.7-.3.52.52,0,0,1,.4.2,1.072,1.072,0,0,1,.2.6.91.91,0,0,1-.4.8,9.067,9.067,0,0,1-3,1.9,11.559,11.559,0,0,1-3.7.7,9.058,9.058,0,0,1-5-1.2Z"/><path class="c" d="M330.3,178a.764.764,0,0,1-.2.5,1.421,1.421,0,0,1-.6.2,1.02,1.02,0,0,1-.8-.5l-4-6.3a4.953,4.953,0,0,0-1.7-1.8,5.511,5.511,0,0,0-2.5-.5h-4v8.2a1.445,1.445,0,0,1-.2.7.844.844,0,0,1-.7.2,1.446,1.446,0,0,1-.7-.2.844.844,0,0,1-.2-.7V158.9a.6.6,0,0,1,.3-.6.908.908,0,0,1,.7-.3H323a7.465,7.465,0,0,1,5,1.5,5.237,5.237,0,0,1,1.8,4.3,5.354,5.354,0,0,1-1.5,4,6.732,6.732,0,0,1-4.2,1.7,3.528,3.528,0,0,1,1.3.8,9.831,9.831,0,0,1,1.2,1.5l3.6,5.8C330.3,177.6,330.3,177.8,330.3,178Zm-7.4-10c3.4,0,5.1-1.5,5.1-4.4a3.815,3.815,0,0,0-1.3-3.2,5.757,5.757,0,0,0-3.8-1h-6.3V168h6.3Z"/><path class="c" d="M335.3,178.4a.844.844,0,0,1-.2-.7v-19a1.445,1.445,0,0,1,.2-.7.967.967,0,0,1,1.4,0,.844.844,0,0,1,.2.7v19a1.445,1.445,0,0,1-.2.7.908.908,0,0,1-.7.3.779.779,0,0,1-.7-.3Z"/><path class="c" d="M342.7,178.4a.844.844,0,0,1-.2-.7V158.8a.6.6,0,0,1,.3-.6.908.908,0,0,1,.7-.3h6.8a7.161,7.161,0,0,1,5,1.6,5.584,5.584,0,0,1,1.8,4.4,5.446,5.446,0,0,1-1.8,4.4,7.484,7.484,0,0,1-5,1.6h-6v7.9a1.445,1.445,0,0,1-.2.7.844.844,0,0,1-.7.2A.908.908,0,0,1,342.7,178.4Zm7.5-10.1c3.4,0,5.1-1.5,5.1-4.4s-1.7-4.4-5.1-4.4h-5.9v8.8h5.9Z"/><path class="c" d="M366.2,178.4a.844.844,0,0,1-.2-.7V159.4h-6.8a.707.707,0,0,1-.8-.8,1.072,1.072,0,0,1,.2-.6.845.845,0,0,1,.6-.2h15.3a1.421,1.421,0,0,1,.6.2c.2.1.2.3.2.6a1.421,1.421,0,0,1-.2.6c-.1.2-.4.2-.6.2h-6.7v18.3a1.445,1.445,0,0,1-.2.7.967.967,0,0,1-1.4,0Z"/><path class="c" d="M386.4,178.3a.864.864,0,0,1-.3-.6V158.9a.6.6,0,0,1,.3-.6.908.908,0,0,1,.7-.3h11.1a.707.707,0,0,1,.8.8,1.421,1.421,0,0,1-.2.6.845.845,0,0,1-.6.2H388v7.8h9.7a.707.707,0,0,1,.8.8,1.072,1.072,0,0,1-.2.6c-.1.2-.3.2-.6.2H388v8.1h10.3a.707.707,0,0,1,.8.8,1.072,1.072,0,0,1-.2.6.845.845,0,0,1-.6.2H387.2C386.9,178.5,386.6,178.5,386.4,178.3Z"/><path class="c" d="M422.4,158a.844.844,0,0,1,.2.7v19a1.445,1.445,0,0,1-.2.7.864.864,0,0,1-.6.3.845.845,0,0,1-.6-.2,1.445,1.445,0,0,1-.2-.7V161.6L414.1,175a1.2,1.2,0,0,1-1,.7c-.4,0-.7-.2-1-.7l-7-13.3v16.1a1.445,1.445,0,0,1-.2.7c-.1.2-.3.2-.6.2a.75.75,0,0,1-.9-.9v-19a1.445,1.445,0,0,1,.2-.7.908.908,0,0,1,.7-.3c.4,0,.6.2.9.7l7.9,15.1,7.8-15.1a.95.95,0,0,1,1.5-.5Z"/><path class="c" d="M442.4,169.7a4.9,4.9,0,0,1,1,3.2,5.166,5.166,0,0,1-1.8,4.2,7.628,7.628,0,0,1-5,1.4h-7.3a.908.908,0,0,1-.7-.3.864.864,0,0,1-.3-.6V158.8a.6.6,0,0,1,.3-.6.908.908,0,0,1,.7-.3h7a7.928,7.928,0,0,1,4.9,1.4,4.7,4.7,0,0,1,1.7,4,4.764,4.764,0,0,1-.9,2.9,5.46,5.46,0,0,1-2.4,1.8,4.773,4.773,0,0,1,2.8,1.7Zm-12.3-2.4H436a5.939,5.939,0,0,0,3.8-1,3.542,3.542,0,0,0,1.3-3c0-2.6-1.7-3.8-5.1-3.8h-5.9v7.8Zm10.2,8.7a3.773,3.773,0,0,0,1.2-3q0-4.2-5.1-4.2h-6.3v8.1h6.3a5.4,5.4,0,0,0,3.9-.9Z"/><path class="c" d="M448.5,178.3a.864.864,0,0,1-.3-.6V158.9a.6.6,0,0,1,.3-.6.908.908,0,0,1,.7-.3h11.1a.707.707,0,0,1,.8.8,1.421,1.421,0,0,1-.2.6c-.1.2-.3.2-.6.2H450v7.8h9.7a.707.707,0,0,1,.8.8,1.072,1.072,0,0,1-.2.6c-.1.2-.3.2-.6.2H450v8.1h10.3a.707.707,0,0,1,.8.8,1.072,1.072,0,0,1-.2.6.845.845,0,0,1-.6.2H449.2C448.9,178.5,448.7,178.5,448.5,178.3Z"/><path class="c" d="M465.8,178.3a.864.864,0,0,1-.3-.6V158.9a.6.6,0,0,1,.3-.6.908.908,0,0,1,.7-.3h5.7c3.3,0,5.8.9,7.6,2.7s2.7,4.3,2.7,7.6-.9,5.9-2.7,7.7-4.3,2.7-7.6,2.7h-5.7C466.2,178.5,466,178.5,465.8,178.3Zm6.3-1.3q8.4,0,8.4-8.7t-8.4-8.7h-4.7V177Z"/><path class="c" d="M487.5,178.3a.864.864,0,0,1-.3-.6V158.9a.6.6,0,0,1,.3-.6.908.908,0,0,1,.7-.3h5.7c3.3,0,5.8.9,7.6,2.7s2.7,4.3,2.7,7.6-.9,5.9-2.7,7.7-4.3,2.7-7.6,2.7h-5.7C487.9,178.5,487.7,178.5,487.5,178.3Zm6.3-1.3q8.4,0,8.4-8.7t-8.4-8.7H489V177Z"/><path class="c" d="M509.2,178.3a.864.864,0,0,1-.3-.6V158.9a.6.6,0,0,1,.3-.6.908.908,0,0,1,.7-.3H521a.707.707,0,0,1,.8.8,1.422,1.422,0,0,1-.2.6c-.1.2-.3.2-.6.2H510.7v7.8h9.7a.707.707,0,0,1,.8.8,1.072,1.072,0,0,1-.2.6c-.1.2-.3.2-.6.2h-9.7v8.1H521a.707.707,0,0,1,.8.8,1.072,1.072,0,0,1-.2.6.845.845,0,0,1-.6.2H509.9C509.6,178.5,509.4,178.5,509.2,178.3Z"/><path class="c" d="M526.5,178.3a.864.864,0,0,1-.3-.6V158.9a.6.6,0,0,1,.3-.6.908.908,0,0,1,.7-.3h5.7c3.3,0,5.8.9,7.6,2.7s2.7,4.3,2.7,7.6-.9,5.9-2.7,7.7-4.3,2.7-7.6,2.7h-5.7C526.9,178.5,526.7,178.5,526.5,178.3Zm6.3-1.3q8.4,0,8.4-8.7t-8.4-8.7H528V177Z"/><path class="c" d="M559.2,177.5a7.771,7.771,0,0,1-3.2-3.7,13.98,13.98,0,0,1-1.1-5.6,13.632,13.632,0,0,1,1.1-5.6,7.527,7.527,0,0,1,3.2-3.6,10.037,10.037,0,0,1,5-1.3,9.366,9.366,0,0,1,3.7.7,7.714,7.714,0,0,1,3,1.9,1.033,1.033,0,0,1,.4.8,1.422,1.422,0,0,1-.2.6.4.4,0,0,1-.4.2,1.329,1.329,0,0,1-.7-.3,9.572,9.572,0,0,0-2.9-1.8,9.427,9.427,0,0,0-3-.5,6.873,6.873,0,0,0-5.5,2.3,10.171,10.171,0,0,0-1.9,6.6c0,2.8.6,5.1,1.9,6.6a6.576,6.576,0,0,0,5.5,2.3,8.532,8.532,0,0,0,3-.5,9.573,9.573,0,0,0,2.9-1.8,1.329,1.329,0,0,1,.7-.3.52.52,0,0,1,.4.2,1.072,1.072,0,0,1,.2.6.909.909,0,0,1-.4.8,9.067,9.067,0,0,1-3,1.9,11.559,11.559,0,0,1-3.7.7,9.058,9.058,0,0,1-5-1.2Z"/><path class="c" d="M591.3,178a.765.765,0,0,1-.2.5,1.421,1.421,0,0,1-.6.2,1.02,1.02,0,0,1-.8-.5l-4-6.3a4.953,4.953,0,0,0-1.7-1.8,5.511,5.511,0,0,0-2.5-.5h-4v8.2a1.444,1.444,0,0,1-.2.7.844.844,0,0,1-.7.2,1.446,1.446,0,0,1-.7-.2.844.844,0,0,1-.2-.7V158.9a.6.6,0,0,1,.3-.6.908.908,0,0,1,.7-.3H584a7.465,7.465,0,0,1,5,1.5,5.237,5.237,0,0,1,1.8,4.3,5.354,5.354,0,0,1-1.5,4,6.732,6.732,0,0,1-4.2,1.7,3.528,3.528,0,0,1,1.3.8,9.833,9.833,0,0,1,1.2,1.5l3.6,5.8C591.3,177.6,591.3,177.8,591.3,178Zm-7.4-10c3.4,0,5.1-1.5,5.1-4.4a3.815,3.815,0,0,0-1.3-3.2,5.757,5.757,0,0,0-3.8-1h-6.3V168Z"/><path class="c" d="M609.4,157.8a1.421,1.421,0,0,1,.6.2.735.735,0,0,1,.2.6,1.421,1.421,0,0,1-.2.6l-7.3,9.4v9.2a1.445,1.445,0,0,1-.2.7.713.713,0,0,1-.6.3.908.908,0,0,1-.7-.3.844.844,0,0,1-.2-.7v-9.2l-7.3-9.4a1,1,0,0,1,0-1.2c.2-.2.3-.2.6-.2a.548.548,0,0,1,.6.4l7,9,7-9A.51.51,0,0,1,609.4,157.8Z"/><path class="c" d="M613.7,178.4a.844.844,0,0,1-.2-.7V158.8a.6.6,0,0,1,.3-.6.908.908,0,0,1,.7-.3h6.8a7.161,7.161,0,0,1,5,1.6,6.278,6.278,0,0,1,0,8.8,7.484,7.484,0,0,1-5,1.6h-6v7.9a1.445,1.445,0,0,1-.2.7.844.844,0,0,1-.7.2.908.908,0,0,1-.7-.3Zm7.5-10.1c3.4,0,5.1-1.5,5.1-4.4s-1.7-4.4-5.1-4.4h-5.9v8.8h5.9Z"/><path class="c" d="M637.2,178.4a.844.844,0,0,1-.2-.7V159.4h-6.8a.707.707,0,0,1-.8-.8,1.073,1.073,0,0,1,.2-.6.845.845,0,0,1,.6-.2h15.3a1.421,1.421,0,0,1,.6.2c.2.1.2.3.2.6a1.421,1.421,0,0,1-.2.6c-.1.2-.4.2-.6.2h-6.7v18.3a1.445,1.445,0,0,1-.2.7.967.967,0,0,1-1.4,0Z"/><path class="c" d="M651.7,177.5a8.338,8.338,0,0,1-3.2-3.7,12.46,12.46,0,0,1-1.1-5.6,13.631,13.631,0,0,1,1.1-5.6,8.262,8.262,0,0,1,3.2-3.7,9.885,9.885,0,0,1,9.8,0,9.288,9.288,0,0,1,3.2,3.6,12.184,12.184,0,0,1,1.1,5.6,13.632,13.632,0,0,1-1.1,5.6,8.262,8.262,0,0,1-3.2,3.7,10.23,10.23,0,0,1-9.8.1Zm10.3-2.7a12.413,12.413,0,0,0,0-13.2,6.5,6.5,0,0,0-5.4-2.3,6.8,6.8,0,0,0-5.4,2.3,12.413,12.413,0,0,0,0,13.2,7.275,7.275,0,0,0,10.8,0Z"/><path class="c" d="M674.2,177.5a7.771,7.771,0,0,1-3.2-3.7,13.979,13.979,0,0,1-1.1-5.6,13.631,13.631,0,0,1,1.1-5.6,7.527,7.527,0,0,1,3.2-3.6,10.037,10.037,0,0,1,5-1.3,9.366,9.366,0,0,1,3.7.7,7.714,7.714,0,0,1,3,1.9,1.033,1.033,0,0,1,.4.8,1.421,1.421,0,0,1-.2.6.4.4,0,0,1-.4.2,1.329,1.329,0,0,1-.7-.3,9.572,9.572,0,0,0-2.9-1.8,9.426,9.426,0,0,0-3-.5,6.873,6.873,0,0,0-5.5,2.3,10.17,10.17,0,0,0-1.9,6.6c0,2.8.6,5.1,1.9,6.6a6.576,6.576,0,0,0,5.5,2.3,8.532,8.532,0,0,0,3-.5,9.573,9.573,0,0,0,2.9-1.8,1.329,1.329,0,0,1,.7-.3.52.52,0,0,1,.4.2,1.072,1.072,0,0,1,.2.6.909.909,0,0,1-.4.8,9.067,9.067,0,0,1-3,1.9,11.559,11.559,0,0,1-3.7.7,9.058,9.058,0,0,1-5-1.2Z"/><path class="c" d="M692.6,176.7c-1.4-1.4-2-3.4-2-6.1V158.7a1.444,1.444,0,0,1,.2-.7.844.844,0,0,1,.7-.2,1.446,1.446,0,0,1,.7.2.844.844,0,0,1,.2.7v12.1c0,4.3,2.1,6.4,6.2,6.4a6,6,0,0,0,4.6-1.6,6.928,6.928,0,0,0,1.6-4.8V158.7a1.445,1.445,0,0,1,.2-.7.908.908,0,0,1,.7-.3.73.73,0,0,1,.8.9v11.9a8.609,8.609,0,0,1-2,6.1,7.964,7.964,0,0,1-6,2.1,7.6,7.6,0,0,1-5.9-2Z"/><path class="c" d="M727.7,178a.765.765,0,0,1-.2.5,1.421,1.421,0,0,1-.6.2,1.02,1.02,0,0,1-.8-.5l-4-6.3a4.953,4.953,0,0,0-1.7-1.8,5.511,5.511,0,0,0-2.5-.5h-4v8.2a1.445,1.445,0,0,1-.2.7.844.844,0,0,1-.7.2,1.446,1.446,0,0,1-.7-.2.844.844,0,0,1-.2-.7V158.9a.6.6,0,0,1,.3-.6.908.908,0,0,1,.7-.3h7.3a7.465,7.465,0,0,1,5,1.5,5.237,5.237,0,0,1,1.8,4.3,5.354,5.354,0,0,1-1.5,4,6.732,6.732,0,0,1-4.2,1.7,3.529,3.529,0,0,1,1.3.8,9.828,9.828,0,0,1,1.2,1.5l3.6,5.8C727.7,177.6,727.7,177.8,727.7,178Zm-7.4-10c3.4,0,5.1-1.5,5.1-4.4a3.815,3.815,0,0,0-1.3-3.2,5.757,5.757,0,0,0-3.8-1H714V168Z"/><path class="c" d="M748,178a.765.765,0,0,1-.2.5,1.422,1.422,0,0,1-.6.2,1.02,1.02,0,0,1-.8-.5l-4-6.3a4.954,4.954,0,0,0-1.7-1.8,5.512,5.512,0,0,0-2.5-.5h-4v8.2a1.445,1.445,0,0,1-.2.7.844.844,0,0,1-.7.2,1.446,1.446,0,0,1-.7-.2.844.844,0,0,1-.2-.7V158.9a.6.6,0,0,1,.3-.6.908.908,0,0,1,.7-.3h7.3a7.465,7.465,0,0,1,5,1.5,5.237,5.237,0,0,1,1.8,4.3,5.354,5.354,0,0,1-1.5,4,6.732,6.732,0,0,1-4.2,1.7,3.528,3.528,0,0,1,1.3.8,9.835,9.835,0,0,1,1.2,1.5l3.6,5.8C748,177.6,748,177.8,748,178Zm-7.4-10c3.4,0,5.1-1.5,5.1-4.4a3.815,3.815,0,0,0-1.3-3.2,5.757,5.757,0,0,0-3.8-1h-6.3V168Z"/><path class="c" d="M753,178.3a.864.864,0,0,1-.3-.6V158.9a.6.6,0,0,1,.3-.6.908.908,0,0,1,.7-.3h11.1a.707.707,0,0,1,.8.8,1.422,1.422,0,0,1-.2.6c-.1.2-.3.2-.6.2H754.5v7.8h9.7a.707.707,0,0,1,.8.8,1.072,1.072,0,0,1-.2.6c-.1.2-.3.2-.6.2h-9.7v8.1h10.3a.707.707,0,0,1,.8.8,1.072,1.072,0,0,1-.2.6.845.845,0,0,1-.6.2H753.7C753.4,178.5,753.2,178.5,753,178.3Z"/><path class="c" d="M785.9,158a1.446,1.446,0,0,1,.2.7v19a1.444,1.444,0,0,1-.2.7.713.713,0,0,1-.6.3.91.91,0,0,1-.8-.4L771.7,161v16.8a1.444,1.444,0,0,1-.2.7.864.864,0,0,1-.6.3.845.845,0,0,1-.6-.2,1.447,1.447,0,0,1-.2-.7v-19a1.445,1.445,0,0,1,.2-.7.985.985,0,0,1,1.5.1l12.8,17.3V158.8a1.444,1.444,0,0,1,.2-.7.864.864,0,0,1,.6-.3C785.6,157.8,785.8,157.8,785.9,158Z"/><path class="c" d="M795.4,177.5a7.771,7.771,0,0,1-3.2-3.7,13.978,13.978,0,0,1-1.1-5.6,13.631,13.631,0,0,1,1.1-5.6,7.527,7.527,0,0,1,3.2-3.6,10.037,10.037,0,0,1,5-1.3,9.366,9.366,0,0,1,3.7.7,7.714,7.714,0,0,1,3,1.9,1.033,1.033,0,0,1,.4.8,1.421,1.421,0,0,1-.2.6.4.4,0,0,1-.4.2,1.329,1.329,0,0,1-.7-.3,9.572,9.572,0,0,0-2.9-1.8,9.426,9.426,0,0,0-3-.5,6.873,6.873,0,0,0-5.5,2.3,10.17,10.17,0,0,0-1.9,6.6c0,2.8.6,5.1,1.9,6.6a6.576,6.576,0,0,0,5.5,2.3,8.531,8.531,0,0,0,3-.5,9.573,9.573,0,0,0,2.9-1.8,1.329,1.329,0,0,1,.7-.3.52.52,0,0,1,.4.2,1.072,1.072,0,0,1,.2.6.909.909,0,0,1-.4.8,9.068,9.068,0,0,1-3,1.9,11.56,11.56,0,0,1-3.7.7A9.058,9.058,0,0,1,795.4,177.5Z"/><path class="c" d="M824.9,157.8a1.421,1.421,0,0,1,.6.2.735.735,0,0,1,.2.6,1.421,1.421,0,0,1-.2.6l-7.3,9.4v9.2a1.444,1.444,0,0,1-.2.7.713.713,0,0,1-.6.3.908.908,0,0,1-.7-.3.844.844,0,0,1-.2-.7v-9.2l-7.3-9.4a1,1,0,0,1,0-1.2c.2-.2.3-.2.6-.2a.548.548,0,0,1,.6.4l7,9,7-9A.51.51,0,0,1,824.9,157.8Z"/></g></svg>