<svg id="Layer_1" data-name="Layer 1" xmlns="http://www.w3.org/2000/svg" viewBox="0 0 300 100"><defs><style>.cls-1,.cls-3{fill:#231f20;}.cls-2{fill:#5a87c6;}.cls-3{font-size:9.47px;font-family:Interstate-Bold, Interstate Bold;font-weight:700;}</style></defs><title>Fishbowl Logo One Line TM</title><path class="cls-1" d="M128,36.71c-1.68,0-2.09.53-2.09,1.72v1.8h3.64v5.31h-3.64V61.69h-5.64V45.54h-2.58V40.23h2.58V37.65c0-4,2.21-5.64,6.13-5.64a9.24,9.24,0,0,1,3.56.61v4.54A4.1,4.1,0,0,0,128,36.71Z"/><path class="cls-1" d="M136.83,38.47a3.23,3.23,0,1,1,3.23-3.23A3.26,3.26,0,0,1,136.83,38.47ZM134,61.69V40.23h5.64V61.69Z"/><path class="cls-1" d="M153.55,62.14a16.85,16.85,0,0,1-9-2.49l1.88-4.29a15,15,0,0,0,7.44,2c2.21,0,2.86-.53,2.86-1.64s-.78-1.47-3.15-2.17c-5.15-1.55-8.46-2.82-8.46-7.36s3.56-6.38,8.58-6.38a17.11,17.11,0,0,1,7.93,2.08l-1.8,4.46a13.91,13.91,0,0,0-6.25-1.72c-2.29,0-2.9.45-2.9,1.39s.65,1.27,4.46,2.49,7.15,2.66,7.15,6.95C162.3,60.38,158.38,62.14,153.55,62.14Z"/><path class="cls-1" d="M180.25,61.69V50.08c0-3.84-1.31-5-3.64-5s-3.68,1.14-3.68,4.86V61.69h-5.64v-27l5.64-2.82v9.77a7,7,0,0,1,5-1.88c5.48,0,7.93,3.76,7.93,9.81v12.1Z"/><path class="cls-1" d="M204,51.35c0,3.6-1.19,5.48-3.35,5.48A4.49,4.49,0,0,1,196.8,55V46.89a4,4,0,0,1,3.47-1.8C202.49,45.09,204,46.93,204,51.35Zm5.72-.12c0-8-3.76-11.45-8.34-11.45a6.61,6.61,0,0,0-4.54,1.8V31.89l-5.64,2.82v27h5.64V60.46a6.8,6.8,0,0,0,4.54,1.68C206.66,62.14,209.68,57.64,209.68,51.23Z"/><path class="cls-1" d="M226.73,51c0,3-1.31,5.72-4,5.72s-4-2.41-4-5.72,1.27-5.76,4-5.76S226.73,47.71,226.73,51Zm5.72,0c0-6.58-4.13-11.2-9.73-11.2S213,44.4,213,51s4.09,11.16,9.69,11.16S232.45,57.56,232.45,51Z"/><path class="cls-1" d="M256.45,61.69h-4.7l-2.13-8.42c-.41-1.68-1-4-1.14-5.07-.16,1-.74,3.39-1.14,5.07l-2.13,8.42h-4.7l-6.17-21.46h5.72l1.88,7.93c.37,1.64.86,3.88,1,4.91.16-1.06.7-3.23,1.14-4.91l2.13-7.93h4.66L253,48.16c.45,1.68,1,3.84,1.14,4.91.16-1,.65-3.27,1-4.91l1.88-7.93h5.56Z"/><path class="cls-1" d="M266.58,61.69v-27l5.64-2.82v29.8Z"/><path class="cls-1" d="M124.74,84.79a7.06,7.06,0,0,1-4.89-1.94l1.09-1.16a5.62,5.62,0,0,0,3.87,1.68c1.94,0,3.16-.92,3.17-2.4,0-1.3-.8-2-3.46-3-3.06-1.06-4-2-4-4,0-2.24,1.88-3.68,4.43-3.68A6.28,6.28,0,0,1,129.35,72l-1.05,1.18a4.8,4.8,0,0,0-3.5-1.4c-1.84,0-2.68,1.06-2.68,2.16s.55,1.78,3.28,2.72c3.25,1.12,4.22,2.16,4.21,4.24S127.78,84.79,124.74,84.79Z"/><path class="cls-1" d="M148.53,77.59c0,3.52-1.92,5.78-4.44,5.78s-4.45-2.3-4.43-5.82,1.9-5.78,4.42-5.78S148.55,74.07,148.53,77.59Zm1.63,0c0-4.22-2.37-7.2-6-7.2s-6.09,3-6.12,7.24,2.35,7.2,6,7.2S150.13,81.77,150.16,77.55Z"/><path class="cls-1" d="M159.06,84.57l.09-14h1.63l-.08,12.58h7.22v1.42Z"/><path class="cls-1" d="M181.34,84.79c-3.48,0-5.27-2-5.24-5.9l.06-8.32h1.63l-.05,8.28c0,3,1.18,4.52,3.7,4.52S185,81.91,185,78.89l.05-8.32h1.63l-.05,8.28C186.59,82.73,184.85,84.79,181.34,84.79Z"/><path class="cls-1" d="M201.16,72l-.08,12.57h-1.63L199.54,72h-4.3V70.57h10.22V72Z"/><path class="cls-1" d="M214.16,84.57l.09-14h1.63l-.09,14Z"/><path class="cls-1" d="M235.39,77.59c0,3.52-1.92,5.78-4.44,5.78s-4.45-2.3-4.43-5.82,1.89-5.78,4.42-5.78S235.41,74.07,235.39,77.59Zm1.63,0c0-4.22-2.37-7.2-6-7.2s-6.09,3-6.12,7.24,2.35,7.2,6,7.2S237,81.77,237,77.55Z"/><path class="cls-1" d="M254.91,84.57,248.59,75c-.31-.48-.85-1.4-1-1.76v1l-.07,10.38h-1.56l.09-14h1.59l6.26,9.76c.31.48.85,1.4,1,1.76v-1L255,70.57h1.56l-.09,14Z"/><path class="cls-1" d="M270.14,84.79a7.07,7.07,0,0,1-4.89-1.94l1.09-1.16a5.62,5.62,0,0,0,3.87,1.68c1.94,0,3.16-.92,3.17-2.4,0-1.3-.8-2-3.46-3-3.06-1.06-4-2-4-4,0-2.24,1.88-3.68,4.43-3.68A6.28,6.28,0,0,1,274.75,72l-1.05,1.18a4.8,4.8,0,0,0-3.5-1.4c-1.84,0-2.68,1.06-2.68,2.16s.55,1.78,3.28,2.72C274,77.77,275,78.81,275,80.89S273.18,84.79,270.14,84.79Z"/><path class="cls-1" d="M91.46,26.68c-.06.05-2.16,2.26-3,2.88a17.2,17.2,0,0,1-3.79,2.28,23.62,23.62,0,0,1-2.69,1L92.21,6.79a2.16,2.16,0,0,0-.17-2,2,2,0,0,0-1.73-.87h-.4A3.27,3.27,0,0,0,87,5.9L86.21,8H78.92l.48-1.23a2.46,2.46,0,0,0,.18-.9,2,2,0,0,0-.34-1.14,2,2,0,0,0-1.73-.87h-.39a3.27,3.27,0,0,0-2.88,2L68.69,20c-1.36-.07-2.73-.12-4.14-.12-8.64,0-22.21,1.51-26.57,6.67a2.59,2.59,0,0,0-.45.29,39,39,0,1,0,65.95,28.08C103.48,44.44,99.65,34.91,91.46,26.68ZM63.2,48h7.29L68.54,53H61.26Zm1.59-4,1.38-3.51c2.31,0,4.88-.2,7.48-.49l-1.57,4Zm3.54-9L70.26,30h7.29l-1.64,4.18A67.28,67.28,0,0,1,68.33,35Zm9-22.91h7.29L82.67,17H75.39Zm-3.53,9h7.29L79.14,26H71.85Zm-9.24,4.26c.69,0,1.36,0,2,0L62.79,35c-13.11-.27-20-3.44-20.76-4.85C42.82,28.72,50.28,25.32,64.55,25.32Zm0,63.14A33.56,33.56,0,0,1,31,54.93a33.17,33.17,0,0,1,7.25-20.77c4,4.19,14.26,5.84,22.43,6.23L55.14,54.5a47.92,47.92,0,0,0,8.24,1,37.88,37.88,0,0,0,10-.8l6.13-15.61c4.75-1,9-2.52,11.29-4.88A33.47,33.47,0,0,1,64.53,88.46Z"/><path class="cls-2" d="M73.19,62.9a.9.9,0,0,1-.13-1.8c12.23-.91,19.82-3.63,20.63-5.9a1.79,1.79,0,0,0,0-.35c0-2.88-6.41-5.38-15.76-6.62l-3.14,8a49.86,49.86,0,0,1-11.61.94c-1.17,0-2.33-.11-3.45-.23h0c-.69-.07-1.34-.15-1.95-.23-2.08-.29-3.89-.66-5.12-.94l3.15-8c-11.71,1-20.19,3.77-20.19,7.09,0,.06,0,.13,0,.19h0A29,29,0,0,0,93.5,58C89.62,60.73,80.92,62.33,73.19,62.9Z"/><text class="cls-3" transform="translate(277.92 29.26)">TM</text></svg>