<svg xmlns="http://www.w3.org/2000/svg" viewBox="0 0 30.75 24.6"><defs><style>.a{fill:#3071a9;}</style></defs><path class="a" d="M0,12.3v6.15a1.536,1.536,0,0,0,1.538,1.538H3.075V10.763H1.538A1.536,1.536,0,0,0,0,12.3ZM22.294,4.613H16.913V1.538a1.538,1.538,0,1,0-3.075,0V4.613H8.456A3.843,3.843,0,0,0,4.613,8.456V21.525A3.078,3.078,0,0,0,7.688,24.6H23.063a3.078,3.078,0,0,0,3.075-3.075V8.456A3.843,3.843,0,0,0,22.294,4.613ZM12.3,19.988H9.225V18.45H12.3Zm-1.538-5.766A1.922,1.922,0,1,1,12.684,12.3,1.921,1.921,0,0,1,10.763,14.222Zm6.15,5.766H13.838V18.45h3.075Zm4.613,0H18.45V18.45h3.075Zm-1.538-5.766A1.922,1.922,0,1,1,21.909,12.3,1.921,1.921,0,0,1,19.988,14.222Zm9.225-3.459H27.675v9.225h1.538A1.536,1.536,0,0,0,30.75,18.45V12.3A1.536,1.536,0,0,0,29.213,10.763Z"/></svg>